<mxfile host="app.diagrams.net" modified="2023-07-26T03:39:23.488Z" agent="Mozilla/5.0 (Macintosh; Intel Mac OS X 10_15_7) AppleWebKit/537.36 (KHTML, like Gecko) Chrome/114.0.0.0 Safari/537.36" etag="LupE-rQGsoEs9YB6bNpY" version="21.6.5" type="github">
  <diagram name="第 1 页" id="Aodn_OtiIQG-zDPt6BSK">
    <mxGraphModel dx="908" dy="614" grid="1" gridSize="10" guides="1" tooltips="1" connect="1" arrows="1" fold="1" page="1" pageScale="1" pageWidth="827" pageHeight="1169" math="0" shadow="0">
      <root>
        <mxCell id="0" />
        <mxCell id="1" parent="0" />
        <mxCell id="qZ7VDWAj0_7LaOEuKD66-3" value="" style="rounded=0;whiteSpace=wrap;html=1;fillColor=none;dashed=1;dashPattern=12 12;" vertex="1" parent="1">
          <mxGeometry x="135" y="80" width="495" height="340" as="geometry" />
        </mxCell>
        <mxCell id="qZ7VDWAj0_7LaOEuKD66-1" value="" style="rounded=0;whiteSpace=wrap;html=1;" vertex="1" parent="1">
          <mxGeometry x="150" y="130" width="390" height="110" as="geometry" />
        </mxCell>
        <mxCell id="qZ7VDWAj0_7LaOEuKD66-2" value="chat api" style="rounded=0;whiteSpace=wrap;html=1;fillColor=#ffcccc;strokeColor=#36393d;" vertex="1" parent="1">
          <mxGeometry x="150" y="90" width="460" height="30" as="geometry" />
        </mxCell>
        <mxCell id="qZ7VDWAj0_7LaOEuKD66-4" value="OLA-CHAT" style="text;html=1;strokeColor=none;fillColor=none;align=center;verticalAlign=middle;whiteSpace=wrap;rounded=0;" vertex="1" parent="1">
          <mxGeometry x="342" y="440" width="76" height="30" as="geometry" />
        </mxCell>
        <mxCell id="qZ7VDWAj0_7LaOEuKD66-5" value="zhiyan&lt;br&gt;&amp;amp;wecom" style="rounded=1;whiteSpace=wrap;html=1;fillColor=#f9f7ed;strokeColor=#36393d;" vertex="1" parent="1">
          <mxGeometry x="700" y="80" width="60" height="100" as="geometry" />
        </mxCell>
        <mxCell id="qZ7VDWAj0_7LaOEuKD66-6" value="蓝盾&amp;amp;123" style="rounded=1;whiteSpace=wrap;html=1;fillColor=#f9f7ed;strokeColor=#36393d;" vertex="1" parent="1">
          <mxGeometry x="700" y="200" width="60" height="100" as="geometry" />
        </mxCell>
        <mxCell id="qZ7VDWAj0_7LaOEuKD66-7" value="" style="rounded=0;whiteSpace=wrap;html=1;" vertex="1" parent="1">
          <mxGeometry x="150" y="341" width="390" height="60" as="geometry" />
        </mxCell>
        <mxCell id="qZ7VDWAj0_7LaOEuKD66-18" value="memory" style="shape=cylinder3;whiteSpace=wrap;html=1;boundedLbl=1;backgroundOutline=1;size=15;" vertex="1" parent="1">
          <mxGeometry x="550" y="330" width="70" height="80" as="geometry" />
        </mxCell>
        <mxCell id="qZ7VDWAj0_7LaOEuKD66-20" value="EF" style="shape=cylinder3;whiteSpace=wrap;html=1;boundedLbl=1;backgroundOutline=1;size=15;" vertex="1" parent="1">
          <mxGeometry x="550" y="240" width="70" height="80" as="geometry" />
        </mxCell>
        <mxCell id="qZ7VDWAj0_7LaOEuKD66-21" value="Prompt&lt;br&gt;Store" style="shape=cylinder3;whiteSpace=wrap;html=1;boundedLbl=1;backgroundOutline=1;size=15;" vertex="1" parent="1">
          <mxGeometry x="550" y="140" width="70" height="80" as="geometry" />
        </mxCell>
        <mxCell id="qZ7VDWAj0_7LaOEuKD66-22" value="Rainbow" style="rounded=1;whiteSpace=wrap;html=1;fillColor=#eeeeee;strokeColor=#36393d;" vertex="1" parent="1">
          <mxGeometry x="700" y="320" width="60" height="100" as="geometry" />
        </mxCell>
        <mxCell id="qZ7VDWAj0_7LaOEuKD66-23" value="" style="group" vertex="1" connectable="0" parent="1">
          <mxGeometry x="634" y="110" width="60" height="40" as="geometry" />
        </mxCell>
        <mxCell id="qZ7VDWAj0_7LaOEuKD66-16" value="&lt;b&gt;trace/报警&lt;/b&gt;" style="text;html=1;strokeColor=none;fillColor=none;align=center;verticalAlign=middle;whiteSpace=wrap;rounded=0;fontSize=8;" vertex="1" parent="qZ7VDWAj0_7LaOEuKD66-23">
          <mxGeometry width="60" height="30" as="geometry" />
        </mxCell>
        <mxCell id="qZ7VDWAj0_7LaOEuKD66-17" value="" style="shape=doubleArrow;whiteSpace=wrap;html=1;" vertex="1" parent="qZ7VDWAj0_7LaOEuKD66-23">
          <mxGeometry x="10" y="24" width="40" height="16" as="geometry" />
        </mxCell>
        <mxCell id="qZ7VDWAj0_7LaOEuKD66-26" value="" style="group" vertex="1" connectable="0" parent="1">
          <mxGeometry x="634" y="220" width="60" height="40" as="geometry" />
        </mxCell>
        <mxCell id="qZ7VDWAj0_7LaOEuKD66-25" value="" style="group" vertex="1" connectable="0" parent="qZ7VDWAj0_7LaOEuKD66-26">
          <mxGeometry width="60" height="40" as="geometry" />
        </mxCell>
        <mxCell id="qZ7VDWAj0_7LaOEuKD66-11" value="" style="shape=doubleArrow;whiteSpace=wrap;html=1;" vertex="1" parent="qZ7VDWAj0_7LaOEuKD66-25">
          <mxGeometry x="10" y="24" width="40" height="16" as="geometry" />
        </mxCell>
        <mxCell id="qZ7VDWAj0_7LaOEuKD66-12" value="&lt;b&gt;CI/CD&lt;/b&gt;" style="text;html=1;strokeColor=none;fillColor=none;align=center;verticalAlign=middle;whiteSpace=wrap;rounded=0;fontSize=8;" vertex="1" parent="qZ7VDWAj0_7LaOEuKD66-26">
          <mxGeometry width="60" height="30" as="geometry" />
        </mxCell>
        <mxCell id="qZ7VDWAj0_7LaOEuKD66-27" value="" style="group" vertex="1" connectable="0" parent="1">
          <mxGeometry x="638" y="341" width="60" height="40" as="geometry" />
        </mxCell>
        <mxCell id="qZ7VDWAj0_7LaOEuKD66-28" value="" style="group" vertex="1" connectable="0" parent="qZ7VDWAj0_7LaOEuKD66-27">
          <mxGeometry width="60" height="40" as="geometry" />
        </mxCell>
        <mxCell id="qZ7VDWAj0_7LaOEuKD66-29" value="" style="shape=doubleArrow;whiteSpace=wrap;html=1;" vertex="1" parent="qZ7VDWAj0_7LaOEuKD66-28">
          <mxGeometry x="10" y="24" width="40" height="16" as="geometry" />
        </mxCell>
        <mxCell id="qZ7VDWAj0_7LaOEuKD66-30" value="&lt;b&gt;动态配置&lt;/b&gt;" style="text;html=1;strokeColor=none;fillColor=none;align=center;verticalAlign=middle;whiteSpace=wrap;rounded=0;fontSize=8;" vertex="1" parent="qZ7VDWAj0_7LaOEuKD66-27">
          <mxGeometry width="60" height="30" as="geometry" />
        </mxCell>
      </root>
    </mxGraphModel>
  </diagram>
</mxfile>
